<svg width="39" height="39" viewBox="0 0 39 39" fill="none" xmlns="http://www.w3.org/2000/svg">
<path d="M0.207664 5.11315C0.207664 5.02094 0.299873 4.92873 0.345978 4.92873C0.438187 4.92873 0.530395 4.92873 0.5765 4.97483L4.72591 9.03204L9.01365 4.74431L4.86423 0.594896C4.77202 0.502687 4.77202 0.364373 4.86423 0.272164C4.91034 0.22606 4.91034 0.22606 4.95644 0.22606C8.09155 -0.46551 11.3189 0.456583 13.6702 2.6235C15.8832 4.83652 15.33 7.41838 14.9611 9.12425C14.915 9.35477 14.8689 9.6314 14.8228 9.81582C16.2982 11.3834 27.4555 22.5868 29.1153 24.1544C29.2997 24.1082 29.4841 24.0621 29.7146 24.016C31.4205 23.6011 33.9101 23.0017 36.2154 25.2609C38.3823 27.5661 39.3044 30.7934 38.6128 33.8824C38.5667 34.0207 38.4745 34.0668 38.3362 34.0668C38.2901 34.0668 38.244 34.0207 38.244 34.0207L34.0946 29.9635L29.8068 34.2513L33.9562 38.4007C34.0485 38.4929 34.0485 38.6312 33.9562 38.7234C33.9101 38.7695 33.9101 38.7695 33.864 38.7695C33.2186 38.9078 32.527 39 31.8354 39C29.3458 39 26.9483 38.0779 25.1503 36.326C22.9372 34.113 23.4905 31.5311 23.8593 29.8252C23.9054 29.5947 23.9515 29.3181 23.9976 29.1337C22.5223 27.5661 11.365 16.3627 9.70522 14.7951L9.10585 14.9334C7.44609 15.3484 4.86423 15.9938 2.6051 13.7347C0.438186 11.4295 -0.4378 8.20216 0.207664 5.11315Z" fill="#FDC710"/>
</svg>
