<svg width="33" height="36" viewBox="0 0 33 36" fill="none" xmlns="http://www.w3.org/2000/svg">
<path d="M19.4614 20.7319C19.4614 21.4317 20.0308 22.0011 20.7307 22.0011H23.32C23.3965 21.5893 23.4383 21.1655 23.4383 20.7319C23.4383 20.2982 23.3964 19.8744 23.32 19.4626H20.7307C20.0308 19.4626 19.4614 20.0319 19.4614 20.7319Z" fill="#4425FF" fill-opacity="0.44"/>
<path d="M10.7462 0.000244141H2.62308C1.17666 0.000244141 0 1.17699 0 2.62332V5.58604H10.7462V0.000244141Z" fill="#4425FF"/>
<path d="M16.5005 27.6704C18.9209 27.6704 21.0547 26.4237 22.2966 24.5396H20.7312C18.6317 24.5396 16.9235 22.8315 16.9235 20.7319C16.9235 18.6324 18.6317 16.9242 20.7312 16.9242H22.2966C21.0547 15.0401 18.921 13.7935 16.5005 13.7935C12.6746 13.7935 9.56201 16.906 9.56201 20.7319C9.56201 24.5577 12.6746 27.6704 16.5005 27.6704Z" fill="#4425FF" fill-opacity="0.44"/>
<path d="M33.0001 2.62308C33.0001 1.17675 31.8234 0 30.377 0H13.2847V5.5858H33.0001V2.62308Z" fill="#4425FF"/>
<path d="M2.62308 35.8794H30.3769C31.8233 35.8794 33 34.7027 33 33.2563V8.12427H0V33.2564C0 34.7027 1.17675 35.8794 2.62308 35.8794ZM16.5 11.255C20.6865 11.255 24.2471 13.984 25.4978 17.7562C25.5093 17.7875 25.5198 17.8192 25.5289 17.8517C25.8195 18.7605 25.9768 19.7282 25.9768 20.732C25.9768 21.7359 25.8194 22.7037 25.5288 23.6124C25.5197 23.6447 25.5093 23.6763 25.4978 23.7075C24.2471 27.4799 20.6864 30.2089 16.4999 30.2089C11.2743 30.2089 7.02299 25.9576 7.02299 20.732C7.02308 15.5064 11.2744 11.255 16.5 11.255Z" fill="#4425FF"/>
</svg>
