<svg width="23" height="23" viewBox="0 0 23 23" fill="none" xmlns="http://www.w3.org/2000/svg">
<path d="M7.6414 16.1553L12.6508 14.5896L13.9751 10.3526L18.2118 9.0286L19.5356 4.792L23.0001 3.70958L22.0786 0.760742L17.0696 2.32594L15.7457 6.56254L11.5092 7.88655L10.1847 12.1237L6.71973 13.2067L7.6414 16.1553Z" fill="#4425FF"/>
<path d="M17.5475 15.0929L16.7723 18.7806L14.0713 19.3482L14.7067 22.3716L19.3809 21.3893L20.156 17.7017L22.8566 17.1343L22.2214 14.1108L17.5475 15.0929Z" fill="#4425FF"/>
<path d="M5.99373 8.00182L6.76876 4.3142L9.46942 3.74688L8.83424 0.723389L4.16028 1.70541L3.38504 5.39312L0.684082 5.96075L1.31947 8.98414L5.99373 8.00182Z" fill="#4425FF"/>
</svg>
