<svg width="42" height="42" viewBox="0 0 42 42" fill="none" xmlns="http://www.w3.org/2000/svg">
<path d="M37.2459 14.4825L26.832 12.9691L22.1768 3.53136C22.0496 3.27296 21.8404 3.06378 21.582 2.93664C20.934 2.61671 20.1465 2.88332 19.8225 3.53136L15.1672 12.9691L4.75331 14.4825C4.46621 14.5236 4.20371 14.6589 4.00273 14.864C3.75976 15.1137 3.62587 15.4497 3.63049 15.7981C3.6351 16.1465 3.77784 16.4788 4.02734 16.722L11.5619 24.0679L9.78183 34.4407C9.74009 34.682 9.76679 34.9302 9.85891 35.1571C9.95103 35.384 10.1049 35.5805 10.303 35.7244C10.5011 35.8683 10.7356 35.9538 10.9799 35.9713C11.2242 35.9887 11.4684 35.9373 11.685 35.823L20.9996 30.9257L30.3142 35.823C30.5685 35.9583 30.8639 36.0034 31.1469 35.9542C31.8605 35.8312 32.3404 35.1544 32.2174 34.4407L30.4373 24.0679L37.9719 16.722C38.1769 16.521 38.3123 16.2585 38.3533 15.9714C38.4641 15.2536 37.9637 14.5892 37.2459 14.4825Z" fill="#FDC710"/>
</svg>
