<svg width="33" height="27" viewBox="0 0 33 27" fill="none" xmlns="http://www.w3.org/2000/svg">
<path opacity="0.35" d="M25.4945 13.537C24.803 12.9937 23.8892 12.722 22.7531 12.722C21.6171 12.722 20.6786 13.3394 19.9377 14.5743C19.1968 15.8091 18.8263 17.5626 18.8263 19.8347C18.8263 22.0574 19.2956 23.7368 20.234 24.8728C21.1725 25.9595 23.0001 26.5028 25.7167 26.5028C28.384 26.5028 30.5079 25.7125 32.0885 24.1319C32.4343 22.3537 32.6071 20.2792 32.6071 17.9083C32.6071 10.1041 30.4338 4.2263 26.0872 0.274818L20.5304 4.72024C23.3952 7.09113 25.1487 9.98065 25.7908 13.3888L25.4945 13.537ZM6.97188 13.537C6.28037 12.9937 5.36659 12.722 4.23054 12.722C3.09449 12.722 2.15601 13.3394 1.41511 14.5743C0.674202 15.8091 0.30375 17.5626 0.30375 19.8347C0.30375 22.0574 0.772989 23.7368 1.71147 24.8728C2.64994 25.9595 4.47751 26.5028 7.19415 26.5028C9.8614 26.5028 11.9853 25.7125 13.5659 24.1319C13.9117 22.3537 14.0846 20.2792 14.0846 17.9083C14.0846 10.1041 11.9112 4.2263 7.5646 0.274818L2.00783 4.72024C4.87266 7.09113 6.62613 9.98065 7.26824 13.3888L6.97188 13.537Z" fill="white"/>
</svg>
