<svg width="51" height="42" viewBox="0 0 51 42" fill="none" xmlns="http://www.w3.org/2000/svg">
<path opacity="0.35" d="M11.256 21.456C12.3387 20.6053 13.7693 20.18 15.548 20.18C17.3267 20.18 18.796 21.1467 19.956 23.08C21.116 25.0133 21.696 27.7587 21.696 31.316C21.696 34.796 20.9613 37.4253 19.492 39.204C18.0227 40.9053 15.1613 41.756 10.908 41.756C6.732 41.756 3.40667 40.5187 0.932001 38.044C0.390667 35.26 0.12 32.012 0.12 28.3C0.12 16.0813 3.52267 6.87866 10.328 0.691997L19.028 7.652C14.5427 11.364 11.7973 15.888 10.792 21.224L11.256 21.456ZM40.256 21.456C41.3387 20.6053 42.7693 20.18 44.548 20.18C46.3267 20.18 47.796 21.1467 48.956 23.08C50.116 25.0133 50.696 27.7587 50.696 31.316C50.696 34.796 49.9613 37.4253 48.492 39.204C47.0227 40.9053 44.1613 41.756 39.908 41.756C35.732 41.756 32.4067 40.5187 29.932 38.044C29.3907 35.26 29.12 32.012 29.12 28.3C29.12 16.0813 32.5227 6.87866 39.328 0.691997L48.028 7.652C43.5427 11.364 40.7973 15.888 39.792 21.224L40.256 21.456Z" fill="white"/>
</svg>
