<svg width="33" height="27" viewBox="0 0 33 27" fill="none" xmlns="http://www.w3.org/2000/svg">
<path opacity="0.35" d="M7.29899 13.537C7.9905 12.9937 8.90428 12.722 10.0403 12.722C11.1764 12.722 12.1149 13.3394 12.8558 14.5743C13.5967 15.8091 13.9671 17.5626 13.9671 19.8347C13.9671 22.0574 13.4979 23.7368 12.5594 24.8728C11.6209 25.9595 9.79337 26.5028 7.07672 26.5028C4.40947 26.5028 2.28555 25.7125 0.704956 24.1319C0.3592 22.3537 0.186323 20.2792 0.186323 17.9083C0.186323 10.1041 2.35964 4.2263 6.70627 0.274818L12.263 4.72024C9.39822 7.09113 7.64475 9.98065 7.00263 13.3888L7.29899 13.537ZM25.8216 13.537C26.5131 12.9937 27.4269 12.722 28.5629 12.722C29.699 12.722 30.6374 13.3394 31.3784 14.5743C32.1193 15.8091 32.4897 17.5626 32.4897 19.8347C32.4897 22.0574 32.0205 23.7368 31.082 24.8728C30.1435 25.9595 28.316 26.5028 25.5993 26.5028C22.9321 26.5028 20.8081 25.7125 19.2275 24.1319C18.8818 22.3537 18.7089 20.2792 18.7089 17.9083C18.7089 10.1041 20.8822 4.2263 25.2289 0.274818L30.7856 4.72024C27.9208 7.09113 26.1673 9.98065 25.5252 13.3888L25.8216 13.537Z" fill="white"/>
</svg>
