<svg width="51" height="42" viewBox="0 0 51 42" fill="none" xmlns="http://www.w3.org/2000/svg">
<path opacity="0.35" d="M39.744 21.456C38.6613 20.6053 37.2307 20.18 35.452 20.18C33.6733 20.18 32.204 21.1467 31.044 23.08C29.884 25.0133 29.304 27.7587 29.304 31.316C29.304 34.796 30.0387 37.4253 31.508 39.204C32.9773 40.9053 35.8387 41.756 40.092 41.756C44.268 41.756 47.5933 40.5187 50.068 38.044C50.6093 35.26 50.88 32.012 50.88 28.3C50.88 16.0813 47.4773 6.87866 40.672 0.691997L31.972 7.652C36.4573 11.364 39.2027 15.888 40.208 21.224L39.744 21.456ZM10.744 21.456C9.66133 20.6053 8.23067 20.18 6.452 20.18C4.67333 20.18 3.204 21.1467 2.044 23.08C0.883996 25.0133 0.303995 27.7587 0.303995 31.316C0.303995 34.796 1.03866 37.4253 2.508 39.204C3.97733 40.9053 6.83866 41.756 11.092 41.756C15.268 41.756 18.5933 40.5187 21.068 38.044C21.6093 35.26 21.88 32.012 21.88 28.3C21.88 16.0813 18.4773 6.87866 11.672 0.691997L2.972 7.652C7.45733 11.364 10.2027 15.888 11.208 21.224L10.744 21.456Z" fill="white"/>
</svg>
