<svg width="16" height="20" viewBox="0 0 16 20" fill="none" xmlns="http://www.w3.org/2000/svg">
<path d="M13.6667 17.7574C15.0952 16.3844 16 14.4622 16 12.3112C16 11.5332 15.7619 10.6636 15.381 9.74828C14.9524 8.78719 14.381 7.82609 13.7143 6.81922C13.7143 6.77346 13.6667 6.77346 13.6667 6.72769C12.2857 4.71396 10.4762 2.746 8.95238 1.05263L8 0L7.04762 1.05263C4.09524 4.34783 0 8.87872 0 12.3112C0 14.4165 0.904762 16.3387 2.33333 17.7574C3.7619 19.1304 5.76191 20 8 20C10.1905 20 12.1905 19.1304 13.6667 17.7574Z" fill="#4425FF"/>
</svg>
