<svg width="23" height="22" viewBox="0 0 23 22" fill="none" xmlns="http://www.w3.org/2000/svg">
<g clip-path="url(#clip0)">
<path fill-rule="evenodd" clip-rule="evenodd" d="M14.9641 2.16938V5.32865C17.1241 6.52161 18.504 8.85778 18.504 11.4858C18.504 15.3243 15.3434 18.4378 11.4457 18.4378C7.55076 18.4378 4.39015 15.3256 4.39015 11.4858C4.39015 8.77305 5.75123 6.4436 8.01611 5.29771V2.16669C4.06602 3.47801 1.43262 7.13356 1.43262 11.4858C1.43262 16.9355 5.91666 21.351 11.4444 21.351C16.9734 21.351 21.4588 16.9355 21.4588 11.4858C21.4602 7.21291 18.8052 3.54794 14.9641 2.16938Z" fill="#4425FF"/>
<path fill-rule="evenodd" clip-rule="evenodd" d="M11.381 10.5888C12.4274 10.5888 13.2801 9.9432 13.2801 9.14296V1.49965C13.2801 0.700751 12.4274 0.053833 11.381 0.053833C10.3333 0.053833 9.48193 0.700751 9.48193 1.49965V9.14296C9.48193 9.9432 10.3333 10.5888 11.381 10.5888Z" fill="#4425FF"/>
</g>
<defs>
<clipPath id="clip0">
<rect width="22.87" height="21.5191" fill="#4425FF"/>
</clipPath>
</defs>
</svg>
