<?xml-stylesheet type="text/css" href="../css/style.min.css" ?>
<svg width="28" height="28" viewBox="0 0 28 28"  xmlns="http://www.w3.org/2000/svg">
<g clip-path="url(#clip0)">
<path d="M18.6666 15.7824V4.66665C18.6666 2.08934 16.5773 0 14 0C11.4227 0 9.33335 2.08934 9.33335 4.66665V15.7824C7.90125 17.0641 7 18.9269 7 21C7 24.866 10.134 28 14 28C17.866 28 21 24.866 21 21C21 18.9269 20.0988 17.0641 18.6666 15.7824ZM14 25.6666C11.4227 25.6666 9.33335 23.5773 9.33335 21C9.33335 19.6527 9.90434 18.4028 10.8895 17.5211L11.6667 16.8254V4.66665C11.6667 3.37799 12.7114 2.3333 14.0001 2.3333C15.2887 2.3333 16.3334 3.37794 16.3334 4.66665V16.8254L17.1106 17.5211C18.0958 18.4028 18.6668 19.6526 18.6668 21C18.6666 23.5773 16.5773 25.6666 14 25.6666Z" fill="#4425FF"/>
<path d="M15.273 16.5454H12.7275V22.909H15.273V16.5454Z" />
<path d="M14 24.5C15.933 24.5 17.5 22.933 17.5 21C17.5 19.067 15.933 17.5 14 17.5C12.067 17.5 10.5 19.067 10.5 21C10.5 22.933 12.067 24.5 14 24.5Z" fill="#4425FF"/>
</g>
<defs>
<clipPath id="clip0">
<rect width="28" height="28" />
</clipPath>
</defs>
</svg>
