<svg width="28" height="25" viewBox="0 0 28 25" fill="none" xmlns="http://www.w3.org/2000/svg">
<path d="M11.5247 20.7218C15.2596 20.7218 18.4155 18.2045 19.3909 14.7783L17.4076 16.3188L15.3556 13.677L21.3768 8.99994L27.398 13.677L25.3457 16.3188L22.8964 14.4162C21.9987 19.8829 17.2416 24.0673 11.5247 24.0673C5.17004 24.0673 0 18.8973 0 12.5426H3.34537C3.34548 17.0526 7.01468 20.7218 11.5247 20.7218Z" fill="#4425FF"/>
<path d="M23.6925 0.25L21 2.9425L18.3075 0.25L17.25 1.3075L19.9425 4L17.25 6.6925L18.3075 7.75L21 5.0575L23.6925 7.75L24.75 6.6925L22.0575 4L24.75 1.3075L23.6925 0.25Z" fill="#4425FF"/>
</svg>
